<svg xmlns="http://www.w3.org/2000/svg" width="800" height="800" viewBox="0 0 800 800"><rect width="100%" height="100%" fill="#DDDDDD"/><path fill="#999999" d="M207.07 401.895v1q0 11.36-5.26 18.28-5.26 6.91-14.68 6.91-4.03 0-7.15-1.49-3.13-1.49-5.35-4.38v24.58h-13.79v-70.95h12.46l.8 6.07q2.28-3.37 5.48-5.19 3.19-1.82 7.45-1.82 9.52 0 14.78 7.43 5.26 7.44 5.26 19.56Zm-13.83 1v-1q0-7.24-2.42-11.74-2.41-4.5-7.38-4.5-3.13 0-5.33 1.28-2.21 1.27-3.48 3.64v22.45q1.27 2.18 3.48 3.32 2.2 1.14 5.42 1.14 5.02 0 7.37-3.94 2.34-3.93 2.34-10.65Zm36.9-49.69v73.89h-13.83v-73.89h13.83Zm55.27 73.89h-13.83q-.76-1.75-1.3-3.69-.55-1.95-.79-3.98-2.13 3.74-5.61 6.2-3.48 2.46-8.31 2.46-8.05 0-12.41-4.14-4.36-4.14-4.36-11.3 0-7.53 5.81-11.67 5.8-4.15 16.93-4.15h7.72v-4.07q0-3.69-1.94-5.73-1.95-2.04-5.74-2.04-3.36 0-5.18 1.64-1.83 1.63-1.83 4.52l-13.35-.05-.05-.28q-.33-6.49 5.64-11.2 5.97-4.71 15.67-4.71 9.19 0 14.92 4.66 5.74 4.67 5.74 13.29v21.17q0 3.6.54 6.77.54 3.17 1.73 6.3Zm-26.48-9.24q3.65 0 6.49-1.8 2.84-1.8 3.84-4.16v-7.25h-7.72q-4.41 0-6.68 2.2-2.27 2.2-2.27 5.33 0 2.56 1.7 4.12 1.71 1.56 4.64 1.56Zm56.18-.37q3.69 0 5.92-2.16 2.22-2.15 2.22-5.75h12.55l.15.28q.18 7.77-5.85 13-6.04 5.23-14.99 5.23-11.47 0-17.67-7.24-6.21-7.25-6.21-18.62v-1.42q0-11.32 6.19-18.61 6.18-7.29 17.64-7.29 9.47 0 15.27 5.4 5.8 5.39 5.62 14.2l-.1.29h-12.6q0-3.98-2.18-6.61-2.18-2.63-6.01-2.63-5.5 0-7.75 4.27-2.25 4.26-2.25 10.98v1.42q0 6.87 2.25 11.06 2.25 4.2 7.8 4.2Zm51.38 10.6q-11.08 0-17.71-7.1-6.63-7.1-6.63-18.05v-1.89q0-11.41 6.28-18.8 6.27-7.39 16.83-7.34 10.38 0 16.11 6.25 5.73 6.25 5.73 16.91v7.53h-30.6l-.09.28q.37 5.07 3.38 8.34 3.01 3.27 8.17 3.27 4.6 0 7.63-.93 3.03-.92 6.63-2.91l3.74 8.52q-3.13 2.56-8.19 4.24-5.07 1.68-11.28 1.68Zm-1.23-42.53q-3.83 0-6.06 2.94-2.23 2.94-2.75 7.72l.15.24h16.95v-1.24q0-4.4-2.06-7.03t-6.23-2.63Zm43.39-32.35v29.13q2.41-3.5 5.92-5.47 3.5-1.96 7.77-1.96 8 0 12.57 5.32 4.57 5.33 4.57 16.46v30.41h-13.83v-30.5q0-5.97-2.11-8.46-2.1-2.48-6.27-2.48-2.84 0-5.02 1.02-2.18 1.01-3.6 2.86v37.56h-13.83v-73.89h13.83Zm39.12 48.79v-1q0-11.46 6.39-18.78 6.4-7.31 17.72-7.31 11.36 0 17.81 7.29 6.44 7.29 6.44 18.8v1q0 11.55-6.42 18.82t-17.74 7.27q-11.36 0-17.78-7.27-6.42-7.27-6.42-18.82Zm13.78-1v1q0 7.01 2.47 11.25 2.46 4.24 7.95 4.24 5.35 0 7.84-4.27 2.49-4.26 2.49-11.22v-1q0-6.82-2.51-11.13-2.51-4.31-7.91-4.31-5.35 0-7.84 4.34-2.49 4.33-2.49 11.1Zm40.97 1.9v-1q0-12.12 5.24-19.56 5.23-7.43 14.75-7.43 3.84 0 6.91 1.65 3.08 1.66 5.4 4.74v-28.09h13.88v73.89h-11.89l-1.13-6.25q-2.42 3.55-5.71 5.4-3.29 1.84-7.56 1.84-9.42 0-14.65-6.91-5.24-6.92-5.24-18.28Zm13.78-1v1q0 6.72 2.28 10.58 2.27 3.86 7.39 3.86 2.98 0 5.21-1.2 2.22-1.21 3.64-3.53v-21.84q-1.42-2.41-3.62-3.76-2.2-1.35-5.14-1.35-5.07 0-7.41 4.5-2.35 4.5-2.35 11.74Zm65.79 26.19q-11.08 0-17.71-7.1-6.63-7.1-6.63-18.05v-1.89q0-11.41 6.27-18.8 6.28-7.39 16.84-7.34 10.37 0 16.1 6.25 5.74 6.25 5.74 16.91v7.53h-30.6l-.1.28q.38 5.07 3.39 8.34 3.01 3.27 8.17 3.27 4.59 0 7.63-.93 3.03-.92 6.63-2.91l3.74 8.52q-3.13 2.56-8.2 4.24-5.06 1.68-11.27 1.68Zm-1.23-42.53q-3.84 0-6.06 2.94-2.23 2.94-2.75 7.72l.14.24h16.96v-1.24q0-4.4-2.06-7.03t-6.23-2.63Zm58.3-10.09-1.46 12.27-5.07-.14q-3.08 0-5.07 1.28-1.99 1.28-3.03 3.6v34.62h-13.78v-51.25h12.83l.62 7.58q1.8-4.02 4.66-6.27 2.87-2.25 6.61-2.25 1.04 0 1.92.16.87.17 1.77.4Z"/></svg>